<?xml version="1.0" standalone="no"?><!DOCTYPE svg PUBLIC "-//W3C//DTD SVG 1.1//EN" "http://www.w3.org/Graphics/SVG/1.1/DTD/svg11.dtd"><svg t="1670593686327" class="icon" viewBox="0 0 1024 1024" version="1.1" xmlns="http://www.w3.org/2000/svg" p-id="4751" xmlns:xlink="http://www.w3.org/1999/xlink" width="200" height="200"><path d="M749.39 829.87H271.73c-11.5 0-20.81-9.32-20.81-20.81v-589.4c0-11.49 9.32-20.81 20.81-20.81h477.66c11.5 0 20.81 9.32 20.81 20.81v589.4c0 11.49-9.31 20.81-20.81 20.81z m-456.85-41.62h436.03V240.47H292.54v547.78z" fill="#040000" p-id="4752"></path><path d="M662.15 619.99H358.97c-7.66 0-13.87-6.21-13.87-13.87 0-7.67 6.21-13.87 13.87-13.87h303.18c7.66 0 13.87 6.21 13.87 13.87 0.01 7.67-6.21 13.87-13.87 13.87zM637.72 706.53H383.4c-7.66 0-13.87-6.21-13.87-13.87 0-7.67 6.21-13.87 13.87-13.87h254.33c7.66 0 13.87 6.21 13.87 13.87 0 7.67-6.21 13.87-13.88 13.87zM590.27 534.83H421.93c-3.14 0-5.68-2.54-5.68-5.68v-15.21c0-51.26 41.56-92.82 92.82-92.82 49.62 0 89.85 40.23 89.85 89.85v15.21c0 4.78-3.87 8.65-8.65 8.65z" fill="#040000" p-id="4753"></path><path d="M508.01 353.89m-33.67 0a33.67 33.67 0 1 0 67.34 0 33.67 33.67 0 1 0-67.34 0Z" fill="#040000" p-id="4754"></path><path d="M606.52 388.87m-31.37 0a31.37 31.37 0 1 0 62.74 0 31.37 31.37 0 1 0-62.74 0Z" fill="#040000" p-id="4755"></path><path d="M409.49 388.87m-31.37 0a31.37 31.37 0 1 0 62.74 0 31.37 31.37 0 1 0-62.74 0Z" fill="#040000" p-id="4756"></path></svg>